<svg width="271" height="44" viewBox="0 0 271 44" fill="none" xmlns="http://www.w3.org/2000/svg">
<rect width="271" height="44" rx="10" fill="black"/>
<path d="M32.2012 27V16.2627H33.6221V20.6719H39.2031V16.2627H40.624V27H39.2031V21.939H33.6221V27H32.2012ZM47.9043 26.0405C47.416 26.4556 46.9448 26.7485 46.4907 26.9194C46.0415 27.0903 45.5581 27.1758 45.0405 27.1758C44.186 27.1758 43.5293 26.9683 43.0703 26.5532C42.6113 26.1333 42.3818 25.5986 42.3818 24.9492C42.3818 24.5684 42.4673 24.2217 42.6382 23.9092C42.814 23.5918 43.041 23.3379 43.3193 23.1475C43.6025 22.957 43.9199 22.813 44.2715 22.7153C44.5303 22.647 44.9209 22.5811 45.4434 22.5176C46.5078 22.3906 47.2915 22.2393 47.7944 22.0635C47.7993 21.8828 47.8018 21.7681 47.8018 21.7192C47.8018 21.1821 47.6772 20.8037 47.4282 20.584C47.0913 20.2861 46.5908 20.1372 45.9268 20.1372C45.3066 20.1372 44.8477 20.2471 44.5498 20.4668C44.2568 20.6816 44.0396 21.0649 43.8979 21.6167L42.6089 21.4409C42.7261 20.8892 42.9189 20.4448 43.1875 20.1079C43.4561 19.7661 43.8442 19.5049 44.3521 19.3242C44.8599 19.1387 45.4482 19.0459 46.1172 19.0459C46.7812 19.0459 47.3208 19.124 47.7358 19.2803C48.1509 19.4365 48.4561 19.6343 48.6514 19.8735C48.8467 20.1079 48.9834 20.4058 49.0615 20.7671C49.1055 20.9917 49.1274 21.397 49.1274 21.9829V23.7407C49.1274 24.9663 49.1543 25.7427 49.208 26.0698C49.2666 26.3921 49.3789 26.7021 49.5449 27H48.168C48.0312 26.7266 47.9434 26.4067 47.9043 26.0405ZM47.7944 23.0962C47.3159 23.2915 46.5981 23.4575 45.6411 23.5942C45.0991 23.6724 44.7158 23.7603 44.4912 23.8579C44.2666 23.9556 44.0933 24.0996 43.9712 24.29C43.8491 24.4756 43.7881 24.6831 43.7881 24.9126C43.7881 25.2642 43.9199 25.5571 44.1836 25.7915C44.4521 26.0259 44.8428 26.1431 45.3555 26.1431C45.8633 26.1431 46.3149 26.0332 46.7104 25.8135C47.106 25.5889 47.3965 25.2837 47.582 24.8979C47.7236 24.6001 47.7944 24.1606 47.7944 23.5796V23.0962ZM51.1855 19.2217H57.3232V27H56.0049V20.313H52.5039V27H51.1855V19.2217ZM59.3081 19.2217H60.6265V25.1543L64.2812 19.2217H65.7021V27H64.3838V21.104L60.729 27H59.3081V19.2217ZM72.7627 24.1509L74.0591 24.3193C73.9175 25.2129 73.5537 25.9136 72.9678 26.4214C72.3867 26.9243 71.6714 27.1758 70.8218 27.1758C69.7573 27.1758 68.9004 26.8291 68.251 26.1357C67.6064 25.4375 67.2842 24.439 67.2842 23.1401C67.2842 22.3003 67.4233 21.5654 67.7017 20.9355C67.98 20.3057 68.4023 19.8345 68.9688 19.522C69.54 19.2046 70.1602 19.0459 70.8291 19.0459C71.6738 19.0459 72.3647 19.2607 72.9019 19.6904C73.439 20.1152 73.7832 20.7207 73.9346 21.5068L72.6528 21.7046C72.5308 21.1821 72.3135 20.7891 72.001 20.5254C71.6934 20.2617 71.3198 20.1299 70.8804 20.1299C70.2163 20.1299 69.6768 20.3691 69.2617 20.8477C68.8467 21.3213 68.6392 22.0732 68.6392 23.1035C68.6392 24.1484 68.8394 24.9077 69.2397 25.3813C69.6401 25.855 70.1626 26.0918 70.8071 26.0918C71.3247 26.0918 71.7568 25.9331 72.1035 25.6157C72.4502 25.2983 72.6699 24.8101 72.7627 24.1509ZM80.2627 26.0405C79.7744 26.4556 79.3032 26.7485 78.8491 26.9194C78.3999 27.0903 77.9165 27.1758 77.3989 27.1758C76.5444 27.1758 75.8877 26.9683 75.4287 26.5532C74.9697 26.1333 74.7402 25.5986 74.7402 24.9492C74.7402 24.5684 74.8257 24.2217 74.9966 23.9092C75.1724 23.5918 75.3994 23.3379 75.6777 23.1475C75.9609 22.957 76.2783 22.813 76.6299 22.7153C76.8887 22.647 77.2793 22.5811 77.8018 22.5176C78.8662 22.3906 79.6499 22.2393 80.1528 22.0635C80.1577 21.8828 80.1602 21.7681 80.1602 21.7192C80.1602 21.1821 80.0356 20.8037 79.7866 20.584C79.4497 20.2861 78.9492 20.1372 78.2852 20.1372C77.665 20.1372 77.2061 20.2471 76.9082 20.4668C76.6152 20.6816 76.3979 21.0649 76.2563 21.6167L74.9673 21.4409C75.0845 20.8892 75.2773 20.4448 75.5459 20.1079C75.8145 19.7661 76.2026 19.5049 76.7104 19.3242C77.2183 19.1387 77.8066 19.0459 78.4756 19.0459C79.1396 19.0459 79.6792 19.124 80.0942 19.2803C80.5093 19.4365 80.8145 19.6343 81.0098 19.8735C81.2051 20.1079 81.3418 20.4058 81.4199 20.7671C81.4639 20.9917 81.4858 21.397 81.4858 21.9829V23.7407C81.4858 24.9663 81.5127 25.7427 81.5664 26.0698C81.625 26.3921 81.7373 26.7021 81.9033 27H80.5264C80.3896 26.7266 80.3018 26.4067 80.2627 26.0405ZM80.1528 23.0962C79.6743 23.2915 78.9565 23.4575 77.9995 23.5942C77.4575 23.6724 77.0742 23.7603 76.8496 23.8579C76.625 23.9556 76.4517 24.0996 76.3296 24.29C76.2075 24.4756 76.1465 24.6831 76.1465 24.9126C76.1465 25.2642 76.2783 25.5571 76.542 25.7915C76.8105 26.0259 77.2012 26.1431 77.7139 26.1431C78.2217 26.1431 78.6733 26.0332 79.0688 25.8135C79.4644 25.5889 79.7549 25.2837 79.9404 24.8979C80.082 24.6001 80.1528 24.1606 80.1528 23.5796V23.0962ZM82.5039 19.2217H88.8247V20.313H86.3198V27H85.0088V20.313H82.5039V19.2217ZM90.0625 19.2217H91.3809V22.2612H93.0508C94.1396 22.2612 94.9771 22.4736 95.563 22.8984C96.1538 23.3184 96.4492 23.8994 96.4492 24.6416C96.4492 25.291 96.2026 25.8477 95.7095 26.3115C95.2212 26.7705 94.4375 27 93.3584 27H90.0625V19.2217ZM91.3809 25.916H92.7651C93.6001 25.916 94.1958 25.8135 94.5522 25.6084C94.9087 25.4033 95.0869 25.0835 95.0869 24.6489C95.0869 24.312 94.9551 24.0117 94.6914 23.748C94.4277 23.4844 93.8442 23.3525 92.9409 23.3525H91.3809V25.916ZM102.089 19.2217H105.128C105.875 19.2217 106.43 19.2852 106.791 19.4121C107.157 19.5342 107.47 19.7612 107.729 20.0933C107.992 20.4253 108.124 20.8232 108.124 21.2871C108.124 21.6582 108.046 21.9829 107.89 22.2612C107.738 22.5347 107.509 22.7642 107.201 22.9497C107.567 23.0718 107.87 23.3013 108.109 23.6382C108.354 23.9702 108.476 24.3657 108.476 24.8247C108.427 25.562 108.163 26.1089 107.685 26.4653C107.206 26.8218 106.51 27 105.597 27H102.089V19.2217ZM103.407 22.4956H104.813C105.375 22.4956 105.761 22.4663 105.971 22.4077C106.181 22.3491 106.369 22.2319 106.535 22.0562C106.701 21.8755 106.784 21.6606 106.784 21.4116C106.784 21.0015 106.637 20.7158 106.344 20.5547C106.056 20.3936 105.561 20.313 104.857 20.313H103.407V22.4956ZM103.407 25.916H105.143C105.89 25.916 106.403 25.8306 106.681 25.6597C106.959 25.4839 107.106 25.1836 107.121 24.7588C107.121 24.5098 107.04 24.2803 106.879 24.0703C106.718 23.8555 106.508 23.7212 106.249 23.6675C105.99 23.6089 105.575 23.5796 105.004 23.5796H103.407V25.916ZM119.301 24.1509L120.597 24.3193C120.456 25.2129 120.092 25.9136 119.506 26.4214C118.925 26.9243 118.209 27.1758 117.36 27.1758C116.295 27.1758 115.438 26.8291 114.789 26.1357C114.145 25.4375 113.822 24.439 113.822 23.1401C113.822 22.3003 113.961 21.5654 114.24 20.9355C114.518 20.3057 114.94 19.8345 115.507 19.522C116.078 19.2046 116.698 19.0459 117.367 19.0459C118.212 19.0459 118.903 19.2607 119.44 19.6904C119.977 20.1152 120.321 20.7207 120.473 21.5068L119.191 21.7046C119.069 21.1821 118.852 20.7891 118.539 20.5254C118.231 20.2617 117.858 20.1299 117.418 20.1299C116.754 20.1299 116.215 20.3691 115.8 20.8477C115.385 21.3213 115.177 22.0732 115.177 23.1035C115.177 24.1484 115.377 24.9077 115.778 25.3813C116.178 25.855 116.701 26.0918 117.345 26.0918C117.863 26.0918 118.295 25.9331 118.642 25.6157C118.988 25.2983 119.208 24.8101 119.301 24.1509ZM122.37 19.2217H128.493V27H127.182V20.313H123.688V24.1875C123.688 25.0908 123.659 25.6865 123.6 25.9746C123.542 26.2627 123.38 26.5142 123.117 26.729C122.853 26.9438 122.472 27.0513 121.974 27.0513C121.667 27.0513 121.312 27.0317 120.912 26.9927V25.894H121.491C121.764 25.894 121.959 25.8672 122.077 25.8135C122.194 25.7549 122.272 25.6646 122.311 25.5425C122.35 25.4204 122.37 25.0225 122.37 24.3486V19.2217ZM130.426 29.9956L130.28 28.7578C130.568 28.8359 130.819 28.875 131.034 28.875C131.327 28.875 131.562 28.8262 131.737 28.7285C131.913 28.6309 132.057 28.4941 132.169 28.3184C132.252 28.1865 132.387 27.8594 132.572 27.3369C132.597 27.2637 132.636 27.1562 132.689 27.0146L129.738 19.2217H131.159L132.777 23.7261C132.987 24.2974 133.175 24.8979 133.341 25.5278C133.493 24.9224 133.673 24.3315 133.883 23.7554L135.546 19.2217H136.864L133.905 27.1318C133.588 27.9863 133.341 28.5747 133.166 28.897C132.931 29.3315 132.663 29.6489 132.36 29.8491C132.057 30.0542 131.696 30.1567 131.276 30.1567C131.022 30.1567 130.739 30.103 130.426 29.9956ZM142.863 19.2217V22.5835C143.283 22.5835 143.578 22.5029 143.749 22.3418C143.92 22.1807 144.169 21.7119 144.496 20.9355C144.804 20.1982 145.08 19.7271 145.324 19.522C145.563 19.3218 145.944 19.2217 146.466 19.2217H146.95V20.313L146.591 20.3057C146.239 20.3057 146.015 20.3569 145.917 20.4595C145.814 20.5669 145.658 20.8867 145.448 21.4189C145.253 21.9268 145.072 22.2783 144.906 22.4736C144.74 22.6689 144.481 22.8472 144.13 23.0083C144.701 23.1597 145.258 23.687 145.8 24.5903L147.25 27H145.8L144.386 24.5903C144.098 24.1021 143.847 23.7822 143.632 23.6309C143.417 23.4795 143.161 23.4038 142.863 23.4038V27H141.515V23.4038C141.222 23.4038 140.968 23.4795 140.753 23.6309C140.539 23.7773 140.287 24.0972 139.999 24.5903L138.585 27H137.135L138.578 24.5903C139.125 23.687 139.684 23.1597 140.255 23.0083C139.865 22.8276 139.591 22.6323 139.435 22.4224C139.279 22.2075 139.044 21.6997 138.732 20.8989C138.625 20.6304 138.51 20.4644 138.388 20.4009C138.261 20.3374 138.073 20.3057 137.824 20.3057C137.76 20.3057 137.631 20.3081 137.436 20.313V19.2217H137.619C138.126 19.2217 138.483 19.2534 138.688 19.3169C138.898 19.3755 139.083 19.5049 139.245 19.7051C139.411 19.9004 139.625 20.3105 139.889 20.9355C140.211 21.7021 140.456 22.1685 140.622 22.3345C140.792 22.5005 141.09 22.5835 141.515 22.5835V19.2217H142.863ZM154.069 16.0063L155.233 16.021C155.18 16.5435 155.062 16.9072 154.882 17.1123C154.706 17.3174 154.477 17.4492 154.193 17.5078C153.915 17.5664 153.366 17.5957 152.545 17.5957C151.457 17.5957 150.714 17.7007 150.319 17.9106C149.923 18.1206 149.638 18.4575 149.462 18.9214C149.291 19.3804 149.196 19.9736 149.176 20.7012C149.508 20.208 149.896 19.8394 150.341 19.5952C150.785 19.3462 151.286 19.2217 151.842 19.2217C152.863 19.2217 153.708 19.5732 154.376 20.2764C155.045 20.9746 155.38 21.9219 155.38 23.1182C155.38 24.0264 155.211 24.771 154.875 25.3521C154.538 25.9331 154.137 26.3823 153.673 26.6997C153.214 27.0171 152.587 27.1758 151.791 27.1758C150.868 27.1758 150.15 26.9658 149.638 26.5459C149.125 26.1211 148.732 25.5791 148.458 24.9199C148.185 24.2607 148.048 23.1133 148.048 21.4775C148.048 19.4219 148.395 18.0376 149.088 17.3247C149.787 16.6118 150.858 16.2554 152.304 16.2554C153.202 16.2554 153.712 16.2407 153.834 16.2114C153.957 16.1821 154.035 16.1138 154.069 16.0063ZM154.003 23.0815C154.003 22.271 153.81 21.6069 153.424 21.0894C153.043 20.5718 152.504 20.313 151.806 20.313C151.078 20.313 150.517 20.5864 150.121 21.1333C149.726 21.6802 149.528 22.4102 149.528 23.3232C149.528 24.2266 149.745 24.9175 150.18 25.396C150.619 25.8745 151.159 26.1138 151.798 26.1138C152.453 26.1138 152.982 25.8379 153.388 25.2861C153.798 24.7295 154.003 23.9946 154.003 23.0815ZM156.588 29.9956L156.442 28.7578C156.73 28.8359 156.981 28.875 157.196 28.875C157.489 28.875 157.724 28.8262 157.899 28.7285C158.075 28.6309 158.219 28.4941 158.332 28.3184C158.415 28.1865 158.549 27.8594 158.734 27.3369C158.759 27.2637 158.798 27.1562 158.852 27.0146L155.9 19.2217H157.321L158.939 23.7261C159.149 24.2974 159.337 24.8979 159.503 25.5278C159.655 24.9224 159.835 24.3315 160.045 23.7554L161.708 19.2217H163.026L160.067 27.1318C159.75 27.9863 159.503 28.5747 159.328 28.897C159.093 29.3315 158.825 29.6489 158.522 29.8491C158.219 30.0542 157.858 30.1567 157.438 30.1567C157.184 30.1567 156.901 30.103 156.588 29.9956ZM168.329 19.2217H174.467V27H173.148V20.313H169.647V27H168.329V19.2217ZM175.961 23.1108C175.961 21.6704 176.361 20.6035 177.162 19.9102C177.831 19.334 178.646 19.0459 179.608 19.0459C180.678 19.0459 181.552 19.3975 182.23 20.1006C182.909 20.7988 183.249 21.7656 183.249 23.001C183.249 24.002 183.097 24.7905 182.794 25.3667C182.497 25.938 182.06 26.3823 181.483 26.6997C180.912 27.0171 180.287 27.1758 179.608 27.1758C178.52 27.1758 177.638 26.8267 176.964 26.1284C176.295 25.4302 175.961 24.4243 175.961 23.1108ZM177.316 23.1108C177.316 24.1069 177.533 24.854 177.968 25.3521C178.402 25.8452 178.949 26.0918 179.608 26.0918C180.263 26.0918 180.807 25.8428 181.242 25.3447C181.676 24.8467 181.894 24.0874 181.894 23.0669C181.894 22.105 181.674 21.3774 181.234 20.8843C180.8 20.3862 180.258 20.1372 179.608 20.1372C178.949 20.1372 178.402 20.3838 177.968 20.877C177.533 21.3701 177.316 22.1147 177.316 23.1108ZM185.519 19.2217H190.939V25.916H191.781V29.2046H190.697V27H184.574V29.2046H183.49V25.916H184.186C185.114 24.6562 185.558 22.4248 185.519 19.2217ZM186.618 20.313C186.52 22.8374 186.129 24.7051 185.446 25.916H189.628V20.313H186.618ZM194.279 19.2217H199.699V25.916H200.541V29.2046H199.457V27H193.334V29.2046H192.25V25.916H192.946C193.874 24.6562 194.318 22.4248 194.279 19.2217ZM195.377 20.313C195.28 22.8374 194.889 24.7051 194.206 25.916H198.388V20.313H195.377ZM207.323 24.4951L208.686 24.6636C208.471 25.4595 208.073 26.0771 207.492 26.5166C206.911 26.9561 206.168 27.1758 205.265 27.1758C204.127 27.1758 203.224 26.8267 202.555 26.1284C201.891 25.4253 201.559 24.4414 201.559 23.1768C201.559 21.8682 201.896 20.8525 202.57 20.1299C203.244 19.4072 204.118 19.0459 205.192 19.0459C206.232 19.0459 207.082 19.3999 207.741 20.1079C208.4 20.8159 208.729 21.812 208.729 23.0962C208.729 23.1743 208.727 23.2915 208.722 23.4478H202.921C202.97 24.3022 203.212 24.9565 203.646 25.4106C204.081 25.8647 204.623 26.0918 205.272 26.0918C205.756 26.0918 206.168 25.9648 206.51 25.7109C206.852 25.457 207.123 25.0518 207.323 24.4951ZM202.995 22.3638H207.338C207.279 21.7095 207.113 21.2188 206.84 20.8916C206.42 20.3838 205.875 20.1299 205.207 20.1299C204.601 20.1299 204.091 20.3325 203.676 20.7378C203.266 21.1431 203.039 21.6851 202.995 22.3638ZM210.348 29.981V19.2217H211.549V20.2324C211.833 19.8369 212.152 19.5415 212.509 19.3462C212.865 19.146 213.297 19.0459 213.805 19.0459C214.469 19.0459 215.055 19.2168 215.563 19.5586C216.071 19.9004 216.454 20.3838 216.713 21.0088C216.972 21.6289 217.101 22.3101 217.101 23.0522C217.101 23.8481 216.957 24.5659 216.669 25.2056C216.386 25.8403 215.971 26.3286 215.424 26.6704C214.882 27.0073 214.311 27.1758 213.71 27.1758C213.271 27.1758 212.875 27.083 212.523 26.8975C212.177 26.7119 211.891 26.4775 211.667 26.1943V29.981H210.348ZM211.542 23.1548C211.542 24.1558 211.745 24.8955 212.15 25.374C212.555 25.8525 213.046 26.0918 213.622 26.0918C214.208 26.0918 214.708 25.8452 215.124 25.3521C215.543 24.854 215.753 24.085 215.753 23.0449C215.753 22.0537 215.548 21.3115 215.138 20.8184C214.733 20.3252 214.247 20.0786 213.681 20.0786C213.119 20.0786 212.621 20.3423 212.187 20.8696C211.757 21.3921 211.542 22.1538 211.542 23.1548ZM223.4 19.2217V22.5835C223.82 22.5835 224.115 22.5029 224.286 22.3418C224.457 22.1807 224.706 21.7119 225.033 20.9355C225.341 20.1982 225.617 19.7271 225.861 19.522C226.1 19.3218 226.481 19.2217 227.003 19.2217H227.487V20.313L227.128 20.3057C226.776 20.3057 226.552 20.3569 226.454 20.4595C226.352 20.5669 226.195 20.8867 225.985 21.4189C225.79 21.9268 225.609 22.2783 225.443 22.4736C225.277 22.6689 225.019 22.8472 224.667 23.0083C225.238 23.1597 225.795 23.687 226.337 24.5903L227.787 27H226.337L224.923 24.5903C224.635 24.1021 224.384 23.7822 224.169 23.6309C223.954 23.4795 223.698 23.4038 223.4 23.4038V27H222.052V23.4038C221.759 23.4038 221.505 23.4795 221.291 23.6309C221.076 23.7773 220.824 24.0972 220.536 24.5903L219.123 27H217.672L219.115 24.5903C219.662 23.687 220.221 23.1597 220.792 23.0083C220.402 22.8276 220.128 22.6323 219.972 22.4224C219.816 22.2075 219.582 21.6997 219.269 20.8989C219.162 20.6304 219.047 20.4644 218.925 20.4009C218.798 20.3374 218.61 20.3057 218.361 20.3057C218.297 20.3057 218.168 20.3081 217.973 20.313V19.2217H218.156C218.664 19.2217 219.02 19.2534 219.225 19.3169C219.435 19.3755 219.621 19.5049 219.782 19.7051C219.948 19.9004 220.163 20.3105 220.426 20.9355C220.749 21.7021 220.993 22.1685 221.159 22.3345C221.33 22.5005 221.627 22.5835 222.052 22.5835V19.2217H223.4ZM228.725 19.2217H230.043V22.5835C230.463 22.5835 230.756 22.5029 230.922 22.3418C231.093 22.1807 231.342 21.7119 231.669 20.9355C231.928 20.3203 232.138 19.915 232.299 19.7197C232.46 19.5244 232.646 19.3926 232.855 19.3242C233.065 19.2559 233.402 19.2217 233.866 19.2217H234.13V20.313L233.764 20.3057C233.417 20.3057 233.195 20.3569 233.097 20.4595C232.995 20.5669 232.838 20.8867 232.628 21.4189C232.428 21.9268 232.245 22.2783 232.079 22.4736C231.913 22.6689 231.657 22.8472 231.31 23.0083C231.876 23.1597 232.433 23.687 232.98 24.5903L234.423 27H232.973L231.566 24.5903C231.278 24.1069 231.027 23.7896 230.812 23.6382C230.597 23.4819 230.341 23.4038 230.043 23.4038V27H228.725V19.2217ZM235.294 19.2217H236.613V25.1543L240.268 19.2217H241.688V27H240.37V21.104L236.715 27H235.294V19.2217Z" fill="#F5F5F5"/>
</svg>
